<svg width="1200" height="380" viewBox="0 0 1200 380" fill="none" xmlns="http://www.w3.org/2000/svg" role="img" aria-labelledby="title desc">
  <title id="title">koul777 GitHub build rhythm</title>
  <desc id="desc">A custom contribution infographic showing activity from 2025-08-31 to 2026-08-30.</desc>
  <defs>
    <linearGradient id="paper" x1="0" y1="0" x2="1200" y2="380" gradientUnits="userSpaceOnUse">
      <stop stop-color="#FBF8F1"/>
      <stop offset="1" stop-color="#EEE8DB"/>
    </linearGradient>
    <pattern id="dots" width="24" height="24" patternUnits="userSpaceOnUse">
      <circle cx="2" cy="2" r="1" fill="#17324D" fill-opacity="0.05"/>
    </pattern>
    <filter id="shadow" x="-30%" y="-30%" width="160%" height="160%">
      <feDropShadow dx="0" dy="8" stdDeviation="12" flood-color="#5F5142" flood-opacity="0.11"/>
    </filter>
    <style>
      text { font-family: "Segoe UI", Arial, sans-serif; }
      .eyebrow { fill: #2A7F78; font-size: 13px; font-weight: 750; letter-spacing: 2.2px; }
      .headline { fill: #17324D; font-size: 34px; font-weight: 780; }
      .body { fill: #52636B; font-size: 15px; }
      .small { fill: #69777D; font-size: 11px; font-weight: 650; letter-spacing: 0.7px; }
      .month { fill: #69777D; font-size: 10px; font-weight: 700; letter-spacing: 0.8px; }
      .metric-value { fill: #17324D; font-size: 24px; font-weight: 780; }
      .metric-label { fill: #69777D; font-size: 10px; font-weight: 750; letter-spacing: 1.1px; }
    </style>
  </defs>

  <rect width="1200" height="380" rx="28" fill="url(#paper)"/>
  <rect width="1200" height="380" rx="28" fill="url(#dots)"/>
  <path d="M0 319C153 292 238 341 363 320C528 292 616 246 778 263C943 280 1060 330 1200 290V380H0V319Z" fill="#2A7F78" fill-opacity="0.05"/>

  <g transform="translate(48 44)">
    <text x="0" y="18" class="eyebrow">BUILD RHYTHM</text>
    <text x="0" y="67" class="headline">Small signals.</text>
    <text x="0" y="106" class="headline">Useful change.</text>
    <rect x="0" y="128" width="48" height="4" rx="2" fill="#D97745"/>
    <text x="0" y="166" class="body">A year of turning field questions</text>
    <text x="0" y="189" class="body">into evidence and working tools.</text>

    <g transform="translate(0 234)">
      <circle cx="6" cy="6" r="6" fill="#D97745" fill-opacity="0.24">
        <animate attributeName="r" values="5;10;5" dur="2.8s" repeatCount="indefinite"/>
        <animate attributeName="fill-opacity" values="0.32;0.05;0.32" dur="2.8s" repeatCount="indefinite"/>
      </circle>
      <circle cx="6" cy="6" r="3" fill="#D97745"/>
      <text x="20" y="10" class="small">UPDATED DAILY · SEOUL</text>
    </g>

    <text x="0" y="286" class="small">2025-08-31  —  2026-08-30</text>
    <text x="0" y="309" class="small">44 ACTIVE DAYS · 18 ACTIVE WEEKS</text>
    <text x="0" y="332" class="small">8 DAY LONGEST STREAK · @koul777</text>
  </g>

  <g filter="url(#shadow)">
    <rect x="342" y="42" width="816" height="310" rx="24" fill="#F8F4EC" stroke="#D8D1C4"/>
  </g>
  <text x="374" y="70" class="small">52-WEEK CONTRIBUTION SIGNAL</text>
  <text x="374" y="88" class="month">AUG</text>
  <text x="402" y="88" class="month">SEP</text>
  <text x="444" y="88" class="month">OCT</text>
  <text x="500" y="88" class="month">NOV</text>
  <text x="570" y="88" class="month">DEC</text>
  <text x="626" y="88" class="month">JAN</text>
  <text x="682" y="88" class="month">FEB</text>
  <text x="738" y="88" class="month">MAR</text>
  <text x="808" y="88" class="month">APR</text>
  <text x="864" y="88" class="month">MAY</text>
  <text x="934" y="88" class="month">JUN</text>
  <text x="990" y="88" class="month">JUL</text>
  <text x="1046" y="88" class="month">AUG</text>
  <text x="350" y="125" class="month">S</text>
  <text x="350" y="153" class="month">T</text>
  <text x="350" y="181" class="month">T</text>
  <rect x="374" y="112" width="10" height="10" rx="3" fill="#E2DED4"><title>2025-08-31 · 0 contributions</title></rect>
  <rect x="374" y="126" width="10" height="10" rx="3" fill="#E2DED4"><title>2025-09-01 · 0 contributions</title></rect>
  <rect x="374" y="140" width="10" height="10" rx="3" fill="#E2DED4"><title>2025-09-02 · 0 contributions</title></rect>
  <rect x="374" y="154" width="10" height="10" rx="3" fill="#E2DED4"><title>2025-09-03 · 0 contributions</title></rect>
  <rect x="374" y="168" width="10" height="10" rx="3" fill="#E2DED4"><title>2025-09-04 · 0 contributions</title></rect>
  <rect x="374" y="182" width="10" height="10" rx="3" fill="#E2DED4"><title>2025-09-05 · 0 contributions</title></rect>
  <rect x="374" y="196" width="10" height="10" rx="3" fill="#E2DED4"><title>2025-09-06 · 0 contributions</title></rect>
  <rect x="388" y="112" width="10" height="10" rx="3" fill="#E2DED4"><title>2025-09-07 · 0 contributions</title></rect>
  <rect x="388" y="126" width="10" height="10" rx="3" fill="#E2DED4"><title>2025-09-08 · 0 contributions</title></rect>
  <rect x="388" y="140" width="10" height="10" rx="3" fill="#E2DED4"><title>2025-09-09 · 0 contributions</title></rect>
  <rect x="388" y="154" width="10" height="10" rx="3" fill="#E2DED4"><title>2025-09-10 · 0 contributions</title></rect>
  <rect x="388" y="168" width="10" height="10" rx="3" fill="#E2DED4"><title>2025-09-11 · 0 contributions</title></rect>
  <rect x="388" y="182" width="10" height="10" rx="3" fill="#E2DED4"><title>2025-09-12 · 0 contributions</title></rect>
  <rect x="388" y="196" width="10" height="10" rx="3" fill="#E2DED4"><title>2025-09-13 · 0 contributions</title></rect>
  <rect x="402" y="112" width="10" height="10" rx="3" fill="#E2DED4"><title>2025-09-14 · 0 contributions</title></rect>
  <rect x="402" y="126" width="10" height="10" rx="3" fill="#E2DED4"><title>2025-09-15 · 0 contributions</title></rect>
  <rect x="402" y="140" width="10" height="10" rx="3" fill="#E2DED4"><title>2025-09-16 · 0 contributions</title></rect>
  <rect x="402" y="154" width="10" height="10" rx="3" fill="#E2DED4"><title>2025-09-17 · 0 contributions</title></rect>
  <rect x="402" y="168" width="10" height="10" rx="3" fill="#E2DED4"><title>2025-09-18 · 0 contributions</title></rect>
  <rect x="402" y="182" width="10" height="10" rx="3" fill="#E2DED4"><title>2025-09-19 · 0 contributions</title></rect>
  <rect x="402" y="196" width="10" height="10" rx="3" fill="#E2DED4"><title>2025-09-20 · 0 contributions</title></rect>
  <rect x="416" y="112" width="10" height="10" rx="3" fill="#E2DED4"><title>2025-09-21 · 0 contributions</title></rect>
  <rect x="416" y="126" width="10" height="10" rx="3" fill="#E2DED4"><title>2025-09-22 · 0 contributions</title></rect>
  <rect x="416" y="140" width="10" height="10" rx="3" fill="#E2DED4"><title>2025-09-23 · 0 contributions</title></rect>
  <rect x="416" y="154" width="10" height="10" rx="3" fill="#E2DED4"><title>2025-09-24 · 0 contributions</title></rect>
  <rect x="416" y="168" width="10" height="10" rx="3" fill="#E2DED4"><title>2025-09-25 · 0 contributions</title></rect>
  <rect x="416" y="182" width="10" height="10" rx="3" fill="#E2DED4"><title>2025-09-26 · 0 contributions</title></rect>
  <rect x="416" y="196" width="10" height="10" rx="3" fill="#E2DED4"><title>2025-09-27 · 0 contributions</title></rect>
  <rect x="430" y="112" width="10" height="10" rx="3" fill="#E2DED4"><title>2025-09-28 · 0 contributions</title></rect>
  <rect x="430" y="126" width="10" height="10" rx="3" fill="#E2DED4"><title>2025-09-29 · 0 contributions</title></rect>
  <rect x="430" y="140" width="10" height="10" rx="3" fill="#E2DED4"><title>2025-09-30 · 0 contributions</title></rect>
  <rect x="430" y="154" width="10" height="10" rx="3" fill="#E2DED4"><title>2025-10-01 · 0 contributions</title></rect>
  <rect x="430" y="168" width="10" height="10" rx="3" fill="#E2DED4"><title>2025-10-02 · 0 contributions</title></rect>
  <rect x="430" y="182" width="10" height="10" rx="3" fill="#E2DED4"><title>2025-10-03 · 0 contributions</title></rect>
  <rect x="430" y="196" width="10" height="10" rx="3" fill="#E2DED4"><title>2025-10-04 · 0 contributions</title></rect>
  <rect x="444" y="112" width="10" height="10" rx="3" fill="#E2DED4"><title>2025-10-05 · 0 contributions</title></rect>
  <rect x="444" y="126" width="10" height="10" rx="3" fill="#E2DED4"><title>2025-10-06 · 0 contributions</title></rect>
  <rect x="444" y="140" width="10" height="10" rx="3" fill="#E2DED4"><title>2025-10-07 · 0 contributions</title></rect>
  <rect x="444" y="154" width="10" height="10" rx="3" fill="#E2DED4"><title>2025-10-08 · 0 contributions</title></rect>
  <rect x="444" y="168" width="10" height="10" rx="3" fill="#E2DED4"><title>2025-10-09 · 0 contributions</title></rect>
  <rect x="444" y="182" width="10" height="10" rx="3" fill="#E2DED4"><title>2025-10-10 · 0 contributions</title></rect>
  <rect x="444" y="196" width="10" height="10" rx="3" fill="#E2DED4"><title>2025-10-11 · 0 contributions</title></rect>
  <rect x="458" y="112" width="10" height="10" rx="3" fill="#E2DED4"><title>2025-10-12 · 0 contributions</title></rect>
  <rect x="458" y="126" width="10" height="10" rx="3" fill="#E2DED4"><title>2025-10-13 · 0 contributions</title></rect>
  <rect x="458" y="140" width="10" height="10" rx="3" fill="#E2DED4"><title>2025-10-14 · 0 contributions</title></rect>
  <rect x="458" y="154" width="10" height="10" rx="3" fill="#E2DED4"><title>2025-10-15 · 0 contributions</title></rect>
  <rect x="458" y="168" width="10" height="10" rx="3" fill="#E2DED4"><title>2025-10-16 · 0 contributions</title></rect>
  <rect x="458" y="182" width="10" height="10" rx="3" fill="#E2DED4"><title>2025-10-17 · 0 contributions</title></rect>
  <rect x="458" y="196" width="10" height="10" rx="3" fill="#E2DED4"><title>2025-10-18 · 0 contributions</title></rect>
  <rect x="472" y="112" width="10" height="10" rx="3" fill="#E2DED4"><title>2025-10-19 · 0 contributions</title></rect>
  <rect x="472" y="126" width="10" height="10" rx="3" fill="#E2DED4"><title>2025-10-20 · 0 contributions</title></rect>
  <rect x="472" y="140" width="10" height="10" rx="3" fill="#E2DED4"><title>2025-10-21 · 0 contributions</title></rect>
  <rect x="472" y="154" width="10" height="10" rx="3" fill="#E2DED4"><title>2025-10-22 · 0 contributions</title></rect>
  <rect x="472" y="168" width="10" height="10" rx="3" fill="#E2DED4"><title>2025-10-23 · 0 contributions</title></rect>
  <rect x="472" y="182" width="10" height="10" rx="3" fill="#E2DED4"><title>2025-10-24 · 0 contributions</title></rect>
  <rect x="472" y="196" width="10" height="10" rx="3" fill="#E2DED4"><title>2025-10-25 · 0 contributions</title></rect>
  <rect x="486" y="112" width="10" height="10" rx="3" fill="#E2DED4"><title>2025-10-26 · 0 contributions</title></rect>
  <rect x="486" y="126" width="10" height="10" rx="3" fill="#E2DED4"><title>2025-10-27 · 0 contributions</title></rect>
  <rect x="486" y="140" width="10" height="10" rx="3" fill="#E2DED4"><title>2025-10-28 · 0 contributions</title></rect>
  <rect x="486" y="154" width="10" height="10" rx="3" fill="#E2DED4"><title>2025-10-29 · 0 contributions</title></rect>
  <rect x="486" y="168" width="10" height="10" rx="3" fill="#E2DED4"><title>2025-10-30 · 0 contributions</title></rect>
  <rect x="486" y="182" width="10" height="10" rx="3" fill="#E2DED4"><title>2025-10-31 · 0 contributions</title></rect>
  <rect x="486" y="196" width="10" height="10" rx="3" fill="#E2DED4"><title>2025-11-01 · 0 contributions</title></rect>
  <rect x="500" y="112" width="10" height="10" rx="3" fill="#E2DED4"><title>2025-11-02 · 0 contributions</title></rect>
  <rect x="500" y="126" width="10" height="10" rx="3" fill="#E2DED4"><title>2025-11-03 · 0 contributions</title></rect>
  <rect x="500" y="140" width="10" height="10" rx="3" fill="#E2DED4"><title>2025-11-04 · 0 contributions</title></rect>
  <rect x="500" y="154" width="10" height="10" rx="3" fill="#E2DED4"><title>2025-11-05 · 0 contributions</title></rect>
  <rect x="500" y="168" width="10" height="10" rx="3" fill="#E2DED4"><title>2025-11-06 · 0 contributions</title></rect>
  <rect x="500" y="182" width="10" height="10" rx="3" fill="#E2DED4"><title>2025-11-07 · 0 contributions</title></rect>
  <rect x="500" y="196" width="10" height="10" rx="3" fill="#E2DED4"><title>2025-11-08 · 0 contributions</title></rect>
  <rect x="514" y="112" width="10" height="10" rx="3" fill="#E2DED4"><title>2025-11-09 · 0 contributions</title></rect>
  <rect x="514" y="126" width="10" height="10" rx="3" fill="#E2DED4"><title>2025-11-10 · 0 contributions</title></rect>
  <rect x="514" y="140" width="10" height="10" rx="3" fill="#E2DED4"><title>2025-11-11 · 0 contributions</title></rect>
  <rect x="514" y="154" width="10" height="10" rx="3" fill="#E2DED4"><title>2025-11-12 · 0 contributions</title></rect>
  <rect x="514" y="168" width="10" height="10" rx="3" fill="#E2DED4"><title>2025-11-13 · 0 contributions</title></rect>
  <rect x="514" y="182" width="10" height="10" rx="3" fill="#E2DED4"><title>2025-11-14 · 0 contributions</title></rect>
  <rect x="514" y="196" width="10" height="10" rx="3" fill="#E2DED4"><title>2025-11-15 · 0 contributions</title></rect>
  <rect x="528" y="112" width="10" height="10" rx="3" fill="#E2DED4"><title>2025-11-16 · 0 contributions</title></rect>
  <rect x="528" y="126" width="10" height="10" rx="3" fill="#E2DED4"><title>2025-11-17 · 0 contributions</title></rect>
  <rect x="528" y="140" width="10" height="10" rx="3" fill="#E2DED4"><title>2025-11-18 · 0 contributions</title></rect>
  <rect x="528" y="154" width="10" height="10" rx="3" fill="#E2DED4"><title>2025-11-19 · 0 contributions</title></rect>
  <rect x="528" y="168" width="10" height="10" rx="3" fill="#E2DED4"><title>2025-11-20 · 0 contributions</title></rect>
  <rect x="528" y="182" width="10" height="10" rx="3" fill="#E2DED4"><title>2025-11-21 · 0 contributions</title></rect>
  <rect x="528" y="196" width="10" height="10" rx="3" fill="#E2DED4"><title>2025-11-22 · 0 contributions</title></rect>
  <rect x="542" y="112" width="10" height="10" rx="3" fill="#E2DED4"><title>2025-11-23 · 0 contributions</title></rect>
  <rect x="542" y="126" width="10" height="10" rx="3" fill="#E2DED4"><title>2025-11-24 · 0 contributions</title></rect>
  <rect x="542" y="140" width="10" height="10" rx="3" fill="#E2DED4"><title>2025-11-25 · 0 contributions</title></rect>
  <rect x="542" y="154" width="10" height="10" rx="3" fill="#E2DED4"><title>2025-11-26 · 0 contributions</title></rect>
  <rect x="542" y="168" width="10" height="10" rx="3" fill="#E2DED4"><title>2025-11-27 · 0 contributions</title></rect>
  <rect x="542" y="182" width="10" height="10" rx="3" fill="#E2DED4"><title>2025-11-28 · 0 contributions</title></rect>
  <rect x="542" y="196" width="10" height="10" rx="3" fill="#E2DED4"><title>2025-11-29 · 0 contributions</title></rect>
  <rect x="556" y="112" width="10" height="10" rx="3" fill="#E2DED4"><title>2025-11-30 · 0 contributions</title></rect>
  <rect x="556" y="126" width="10" height="10" rx="3" fill="#E2DED4"><title>2025-12-01 · 0 contributions</title></rect>
  <rect x="556" y="140" width="10" height="10" rx="3" fill="#E2DED4"><title>2025-12-02 · 0 contributions</title></rect>
  <rect x="556" y="154" width="10" height="10" rx="3" fill="#E2DED4"><title>2025-12-03 · 0 contributions</title></rect>
  <rect x="556" y="168" width="10" height="10" rx="3" fill="#E2DED4"><title>2025-12-04 · 0 contributions</title></rect>
  <rect x="556" y="182" width="10" height="10" rx="3" fill="#E2DED4"><title>2025-12-05 · 0 contributions</title></rect>
  <rect x="556" y="196" width="10" height="10" rx="3" fill="#E2DED4"><title>2025-12-06 · 0 contributions</title></rect>
  <rect x="570" y="112" width="10" height="10" rx="3" fill="#E2DED4"><title>2025-12-07 · 0 contributions</title></rect>
  <rect x="570" y="126" width="10" height="10" rx="3" fill="#E2DED4"><title>2025-12-08 · 0 contributions</title></rect>
  <rect x="570" y="140" width="10" height="10" rx="3" fill="#E2DED4"><title>2025-12-09 · 0 contributions</title></rect>
  <rect x="570" y="154" width="10" height="10" rx="3" fill="#E2DED4"><title>2025-12-10 · 0 contributions</title></rect>
  <rect x="570" y="168" width="10" height="10" rx="3" fill="#E2DED4"><title>2025-12-11 · 0 contributions</title></rect>
  <rect x="570" y="182" width="10" height="10" rx="3" fill="#E2DED4"><title>2025-12-12 · 0 contributions</title></rect>
  <rect x="570" y="196" width="10" height="10" rx="3" fill="#E2DED4"><title>2025-12-13 · 0 contributions</title></rect>
  <rect x="584" y="112" width="10" height="10" rx="3" fill="#E2DED4"><title>2025-12-14 · 0 contributions</title></rect>
  <rect x="584" y="126" width="10" height="10" rx="3" fill="#E2DED4"><title>2025-12-15 · 0 contributions</title></rect>
  <rect x="584" y="140" width="10" height="10" rx="3" fill="#E2DED4"><title>2025-12-16 · 0 contributions</title></rect>
  <rect x="584" y="154" width="10" height="10" rx="3" fill="#E2DED4"><title>2025-12-17 · 0 contributions</title></rect>
  <rect x="584" y="168" width="10" height="10" rx="3" fill="#E2DED4"><title>2025-12-18 · 0 contributions</title></rect>
  <rect x="584" y="182" width="10" height="10" rx="3" fill="#E2DED4"><title>2025-12-19 · 0 contributions</title></rect>
  <rect x="584" y="196" width="10" height="10" rx="3" fill="#E2DED4"><title>2025-12-20 · 0 contributions</title></rect>
  <rect x="598" y="112" width="10" height="10" rx="3" fill="#E2DED4"><title>2025-12-21 · 0 contributions</title></rect>
  <rect x="598" y="126" width="10" height="10" rx="3" fill="#E2DED4"><title>2025-12-22 · 0 contributions</title></rect>
  <rect x="598" y="140" width="10" height="10" rx="3" fill="#E2DED4"><title>2025-12-23 · 0 contributions</title></rect>
  <rect x="598" y="154" width="10" height="10" rx="3" fill="#E2DED4"><title>2025-12-24 · 0 contributions</title></rect>
  <rect x="598" y="168" width="10" height="10" rx="3" fill="#E2DED4"><title>2025-12-25 · 0 contributions</title></rect>
  <rect x="598" y="182" width="10" height="10" rx="3" fill="#E2DED4"><title>2025-12-26 · 0 contributions</title></rect>
  <rect x="598" y="196" width="10" height="10" rx="3" fill="#E2DED4"><title>2025-12-27 · 0 contributions</title></rect>
  <rect x="612" y="112" width="10" height="10" rx="3" fill="#E2DED4"><title>2025-12-28 · 0 contributions</title></rect>
  <rect x="612" y="126" width="10" height="10" rx="3" fill="#E2DED4"><title>2025-12-29 · 0 contributions</title></rect>
  <rect x="612" y="140" width="10" height="10" rx="3" fill="#E2DED4"><title>2025-12-30 · 0 contributions</title></rect>
  <rect x="612" y="154" width="10" height="10" rx="3" fill="#E2DED4"><title>2025-12-31 · 0 contributions</title></rect>
  <rect x="612" y="168" width="10" height="10" rx="3" fill="#E2DED4"><title>2026-01-01 · 0 contributions</title></rect>
  <rect x="612" y="182" width="10" height="10" rx="3" fill="#E2DED4"><title>2026-01-02 · 0 contributions</title></rect>
  <rect x="612" y="196" width="10" height="10" rx="3" fill="#E2DED4"><title>2026-01-03 · 0 contributions</title></rect>
  <rect x="626" y="112" width="10" height="10" rx="3" fill="#E2DED4"><title>2026-01-04 · 0 contributions</title></rect>
  <rect x="626" y="126" width="10" height="10" rx="3" fill="#E2DED4"><title>2026-01-05 · 0 contributions</title></rect>
  <rect x="626" y="140" width="10" height="10" rx="3" fill="#E2DED4"><title>2026-01-06 · 0 contributions</title></rect>
  <rect x="626" y="154" width="10" height="10" rx="3" fill="#E2DED4"><title>2026-01-07 · 0 contributions</title></rect>
  <rect x="626" y="168" width="10" height="10" rx="3" fill="#E2DED4"><title>2026-01-08 · 0 contributions</title></rect>
  <rect x="626" y="182" width="10" height="10" rx="3" fill="#E2DED4"><title>2026-01-09 · 0 contributions</title></rect>
  <rect x="626" y="196" width="10" height="10" rx="3" fill="#E2DED4"><title>2026-01-10 · 0 contributions</title></rect>
  <rect x="640" y="112" width="10" height="10" rx="3" fill="#E2DED4"><title>2026-01-11 · 0 contributions</title></rect>
  <rect x="640" y="126" width="10" height="10" rx="3" fill="#E2DED4"><title>2026-01-12 · 0 contributions</title></rect>
  <rect x="640" y="140" width="10" height="10" rx="3" fill="#E2DED4"><title>2026-01-13 · 0 contributions</title></rect>
  <rect x="640" y="154" width="10" height="10" rx="3" fill="#E2DED4"><title>2026-01-14 · 0 contributions</title></rect>
  <rect x="640" y="168" width="10" height="10" rx="3" fill="#E2DED4"><title>2026-01-15 · 0 contributions</title></rect>
  <rect x="640" y="182" width="10" height="10" rx="3" fill="#E2DED4"><title>2026-01-16 · 0 contributions</title></rect>
  <rect x="640" y="196" width="10" height="10" rx="3" fill="#E2DED4"><title>2026-01-17 · 0 contributions</title></rect>
  <rect x="654" y="112" width="10" height="10" rx="3" fill="#E2DED4"><title>2026-01-18 · 0 contributions</title></rect>
  <rect x="654" y="126" width="10" height="10" rx="3" fill="#E2DED4"><title>2026-01-19 · 0 contributions</title></rect>
  <rect x="654" y="140" width="10" height="10" rx="3" fill="#E2DED4"><title>2026-01-20 · 0 contributions</title></rect>
  <rect x="654" y="154" width="10" height="10" rx="3" fill="#E2DED4"><title>2026-01-21 · 0 contributions</title></rect>
  <rect x="654" y="168" width="10" height="10" rx="3" fill="#E2DED4"><title>2026-01-22 · 0 contributions</title></rect>
  <rect x="654" y="182" width="10" height="10" rx="3" fill="#E2DED4"><title>2026-01-23 · 0 contributions</title></rect>
  <rect x="654" y="196" width="10" height="10" rx="3" fill="#E2DED4"><title>2026-01-24 · 0 contributions</title></rect>
  <rect x="668" y="112" width="10" height="10" rx="3" fill="#E2DED4"><title>2026-01-25 · 0 contributions</title></rect>
  <rect x="668" y="126" width="10" height="10" rx="3" fill="#E2DED4"><title>2026-01-26 · 0 contributions</title></rect>
  <rect x="668" y="140" width="10" height="10" rx="3" fill="#E2DED4"><title>2026-01-27 · 0 contributions</title></rect>
  <rect x="668" y="154" width="10" height="10" rx="3" fill="#E2DED4"><title>2026-01-28 · 0 contributions</title></rect>
  <rect x="668" y="168" width="10" height="10" rx="3" fill="#E2DED4"><title>2026-01-29 · 0 contributions</title></rect>
  <rect x="668" y="182" width="10" height="10" rx="3" fill="#E2DED4"><title>2026-01-30 · 0 contributions</title></rect>
  <rect x="668" y="196" width="10" height="10" rx="3" fill="#E2DED4"><title>2026-01-31 · 0 contributions</title></rect>
  <rect x="682" y="112" width="10" height="10" rx="3" fill="#E2DED4"><title>2026-02-01 · 0 contributions</title></rect>
  <rect x="682" y="126" width="10" height="10" rx="3" fill="#E2DED4"><title>2026-02-02 · 0 contributions</title></rect>
  <rect x="682" y="140" width="10" height="10" rx="3" fill="#E2DED4"><title>2026-02-03 · 0 contributions</title></rect>
  <rect x="682" y="154" width="10" height="10" rx="3" fill="#E2DED4"><title>2026-02-04 · 0 contributions</title></rect>
  <rect x="682" y="168" width="10" height="10" rx="3" fill="#E2DED4"><title>2026-02-05 · 0 contributions</title></rect>
  <rect x="682" y="182" width="10" height="10" rx="3" fill="#E2DED4"><title>2026-02-06 · 0 contributions</title></rect>
  <rect x="682" y="196" width="10" height="10" rx="3" fill="#E2DED4"><title>2026-02-07 · 0 contributions</title></rect>
  <rect x="696" y="112" width="10" height="10" rx="3" fill="#E2DED4"><title>2026-02-08 · 0 contributions</title></rect>
  <rect x="696" y="126" width="10" height="10" rx="3" fill="#E2DED4"><title>2026-02-09 · 0 contributions</title></rect>
  <rect x="696" y="140" width="10" height="10" rx="3" fill="#E2DED4"><title>2026-02-10 · 0 contributions</title></rect>
  <rect x="696" y="154" width="10" height="10" rx="3" fill="#E2DED4"><title>2026-02-11 · 0 contributions</title></rect>
  <rect x="696" y="168" width="10" height="10" rx="3" fill="#2A7F78"><title>2026-02-12 · 13 contributions</title></rect>
  <rect x="696" y="182" width="10" height="10" rx="3" fill="#E2DED4"><title>2026-02-13 · 0 contributions</title></rect>
  <rect x="696" y="196" width="10" height="10" rx="3" fill="#E2DED4"><title>2026-02-14 · 0 contributions</title></rect>
  <rect x="710" y="112" width="10" height="10" rx="3" fill="#E2DED4"><title>2026-02-15 · 0 contributions</title></rect>
  <rect x="710" y="126" width="10" height="10" rx="3" fill="#E2DED4"><title>2026-02-16 · 0 contributions</title></rect>
  <rect x="710" y="140" width="10" height="10" rx="3" fill="#74B4A8"><title>2026-02-17 · 7 contributions</title></rect>
  <rect x="710" y="154" width="10" height="10" rx="3" fill="#E2DED4"><title>2026-02-18 · 0 contributions</title></rect>
  <rect x="710" y="168" width="10" height="10" rx="3" fill="#E2DED4"><title>2026-02-19 · 0 contributions</title></rect>
  <rect x="710" y="182" width="10" height="10" rx="3" fill="#E2DED4"><title>2026-02-20 · 0 contributions</title></rect>
  <rect x="710" y="196" width="10" height="10" rx="3" fill="#E2DED4"><title>2026-02-21 · 0 contributions</title></rect>
  <rect x="724" y="112" width="10" height="10" rx="3" fill="#E2DED4"><title>2026-02-22 · 0 contributions</title></rect>
  <rect x="724" y="126" width="10" height="10" rx="3" fill="#E2DED4"><title>2026-02-23 · 0 contributions</title></rect>
  <rect x="724" y="140" width="10" height="10" rx="3" fill="#E2DED4"><title>2026-02-24 · 0 contributions</title></rect>
  <rect x="724" y="154" width="10" height="10" rx="3" fill="#E2DED4"><title>2026-02-25 · 0 contributions</title></rect>
  <rect x="724" y="168" width="10" height="10" rx="3" fill="#E2DED4"><title>2026-02-26 · 0 contributions</title></rect>
  <rect x="724" y="182" width="10" height="10" rx="3" fill="#E2DED4"><title>2026-02-27 · 0 contributions</title></rect>
  <rect x="724" y="196" width="10" height="10" rx="3" fill="#BFD9D2"><title>2026-02-28 · 3 contributions</title></rect>
  <rect x="738" y="112" width="10" height="10" rx="3" fill="#E2DED4"><title>2026-03-01 · 0 contributions</title></rect>
  <rect x="738" y="126" width="10" height="10" rx="3" fill="#E2DED4"><title>2026-03-02 · 0 contributions</title></rect>
  <rect x="738" y="140" width="10" height="10" rx="3" fill="#E2DED4"><title>2026-03-03 · 0 contributions</title></rect>
  <rect x="738" y="154" width="10" height="10" rx="3" fill="#E2DED4"><title>2026-03-04 · 0 contributions</title></rect>
  <rect x="738" y="168" width="10" height="10" rx="3" fill="#E2DED4"><title>2026-03-05 · 0 contributions</title></rect>
  <rect x="738" y="182" width="10" height="10" rx="3" fill="#E2DED4"><title>2026-03-06 · 0 contributions</title></rect>
  <rect x="738" y="196" width="10" height="10" rx="3" fill="#E2DED4"><title>2026-03-07 · 0 contributions</title></rect>
  <rect x="752" y="112" width="10" height="10" rx="3" fill="#E2DED4"><title>2026-03-08 · 0 contributions</title></rect>
  <rect x="752" y="126" width="10" height="10" rx="3" fill="#E2DED4"><title>2026-03-09 · 0 contributions</title></rect>
  <rect x="752" y="140" width="10" height="10" rx="3" fill="#E2DED4"><title>2026-03-10 · 0 contributions</title></rect>
  <rect x="752" y="154" width="10" height="10" rx="3" fill="#E2DED4"><title>2026-03-11 · 0 contributions</title></rect>
  <rect x="752" y="168" width="10" height="10" rx="3" fill="#E2DED4"><title>2026-03-12 · 0 contributions</title></rect>
  <rect x="752" y="182" width="10" height="10" rx="3" fill="#E2DED4"><title>2026-03-13 · 0 contributions</title></rect>
  <rect x="752" y="196" width="10" height="10" rx="3" fill="#E2DED4"><title>2026-03-14 · 0 contributions</title></rect>
  <rect x="766" y="112" width="10" height="10" rx="3" fill="#E2DED4"><title>2026-03-15 · 0 contributions</title></rect>
  <rect x="766" y="126" width="10" height="10" rx="3" fill="#E2DED4"><title>2026-03-16 · 0 contributions</title></rect>
  <rect x="766" y="140" width="10" height="10" rx="3" fill="#E2DED4"><title>2026-03-17 · 0 contributions</title></rect>
  <rect x="766" y="154" width="10" height="10" rx="3" fill="#E2DED4"><title>2026-03-18 · 0 contributions</title></rect>
  <rect x="766" y="168" width="10" height="10" rx="3" fill="#E2DED4"><title>2026-03-19 · 0 contributions</title></rect>
  <rect x="766" y="182" width="10" height="10" rx="3" fill="#E2DED4"><title>2026-03-20 · 0 contributions</title></rect>
  <rect x="766" y="196" width="10" height="10" rx="3" fill="#BFD9D2"><title>2026-03-21 · 1 contributions</title></rect>
  <rect x="780" y="112" width="10" height="10" rx="3" fill="#BFD9D2"><title>2026-03-22 · 2 contributions</title></rect>
  <rect x="780" y="126" width="10" height="10" rx="3" fill="#E2DED4"><title>2026-03-23 · 0 contributions</title></rect>
  <rect x="780" y="140" width="10" height="10" rx="3" fill="#E2DED4"><title>2026-03-24 · 0 contributions</title></rect>
  <rect x="780" y="154" width="10" height="10" rx="3" fill="#E2DED4"><title>2026-03-25 · 0 contributions</title></rect>
  <rect x="780" y="168" width="10" height="10" rx="3" fill="#E2DED4"><title>2026-03-26 · 0 contributions</title></rect>
  <rect x="780" y="182" width="10" height="10" rx="3" fill="#E2DED4"><title>2026-03-27 · 0 contributions</title></rect>
  <rect x="780" y="196" width="10" height="10" rx="3" fill="#E2DED4"><title>2026-03-28 · 0 contributions</title></rect>
  <rect x="794" y="112" width="10" height="10" rx="3" fill="#E2DED4"><title>2026-03-29 · 0 contributions</title></rect>
  <rect x="794" y="126" width="10" height="10" rx="3" fill="#E2DED4"><title>2026-03-30 · 0 contributions</title></rect>
  <rect x="794" y="140" width="10" height="10" rx="3" fill="#E2DED4"><title>2026-03-31 · 0 contributions</title></rect>
  <rect x="794" y="154" width="10" height="10" rx="3" fill="#E2DED4"><title>2026-04-01 · 0 contributions</title></rect>
  <rect x="794" y="168" width="10" height="10" rx="3" fill="#E2DED4"><title>2026-04-02 · 0 contributions</title></rect>
  <rect x="794" y="182" width="10" height="10" rx="3" fill="#E2DED4"><title>2026-04-03 · 0 contributions</title></rect>
  <rect x="794" y="196" width="10" height="10" rx="3" fill="#E2DED4"><title>2026-04-04 · 0 contributions</title></rect>
  <rect x="808" y="112" width="10" height="10" rx="3" fill="#E2DED4"><title>2026-04-05 · 0 contributions</title></rect>
  <rect x="808" y="126" width="10" height="10" rx="3" fill="#E2DED4"><title>2026-04-06 · 0 contributions</title></rect>
  <rect x="808" y="140" width="10" height="10" rx="3" fill="#E2DED4"><title>2026-04-07 · 0 contributions</title></rect>
  <rect x="808" y="154" width="10" height="10" rx="3" fill="#E2DED4"><title>2026-04-08 · 0 contributions</title></rect>
  <rect x="808" y="168" width="10" height="10" rx="3" fill="#E2DED4"><title>2026-04-09 · 0 contributions</title></rect>
  <rect x="808" y="182" width="10" height="10" rx="3" fill="#E2DED4"><title>2026-04-10 · 0 contributions</title></rect>
  <rect x="808" y="196" width="10" height="10" rx="3" fill="#E2DED4"><title>2026-04-11 · 0 contributions</title></rect>
  <rect x="822" y="112" width="10" height="10" rx="3" fill="#E2DED4"><title>2026-04-12 · 0 contributions</title></rect>
  <rect x="822" y="126" width="10" height="10" rx="3" fill="#E2DED4"><title>2026-04-13 · 0 contributions</title></rect>
  <rect x="822" y="140" width="10" height="10" rx="3" fill="#E2DED4"><title>2026-04-14 · 0 contributions</title></rect>
  <rect x="822" y="154" width="10" height="10" rx="3" fill="#E2DED4"><title>2026-04-15 · 0 contributions</title></rect>
  <rect x="822" y="168" width="10" height="10" rx="3" fill="#E2DED4"><title>2026-04-16 · 0 contributions</title></rect>
  <rect x="822" y="182" width="10" height="10" rx="3" fill="#E2DED4"><title>2026-04-17 · 0 contributions</title></rect>
  <rect x="822" y="196" width="10" height="10" rx="3" fill="#E2DED4"><title>2026-04-18 · 0 contributions</title></rect>
  <rect x="836" y="112" width="10" height="10" rx="3" fill="#E2DED4"><title>2026-04-19 · 0 contributions</title></rect>
  <rect x="836" y="126" width="10" height="10" rx="3" fill="#E2DED4"><title>2026-04-20 · 0 contributions</title></rect>
  <rect x="836" y="140" width="10" height="10" rx="3" fill="#E2DED4"><title>2026-04-21 · 0 contributions</title></rect>
  <rect x="836" y="154" width="10" height="10" rx="3" fill="#E2DED4"><title>2026-04-22 · 0 contributions</title></rect>
  <rect x="836" y="168" width="10" height="10" rx="3" fill="#E2DED4"><title>2026-04-23 · 0 contributions</title></rect>
  <rect x="836" y="182" width="10" height="10" rx="3" fill="#E2DED4"><title>2026-04-24 · 0 contributions</title></rect>
  <rect x="836" y="196" width="10" height="10" rx="3" fill="#E2DED4"><title>2026-04-25 · 0 contributions</title></rect>
  <rect x="850" y="112" width="10" height="10" rx="3" fill="#E2DED4"><title>2026-04-26 · 0 contributions</title></rect>
  <rect x="850" y="126" width="10" height="10" rx="3" fill="#E2DED4"><title>2026-04-27 · 0 contributions</title></rect>
  <rect x="850" y="140" width="10" height="10" rx="3" fill="#E2DED4"><title>2026-04-28 · 0 contributions</title></rect>
  <rect x="850" y="154" width="10" height="10" rx="3" fill="#E2DED4"><title>2026-04-29 · 0 contributions</title></rect>
  <rect x="850" y="168" width="10" height="10" rx="3" fill="#E2DED4"><title>2026-04-30 · 0 contributions</title></rect>
  <rect x="850" y="182" width="10" height="10" rx="3" fill="#E2DED4"><title>2026-05-01 · 0 contributions</title></rect>
  <rect x="850" y="196" width="10" height="10" rx="3" fill="#E2DED4"><title>2026-05-02 · 0 contributions</title></rect>
  <rect x="864" y="112" width="10" height="10" rx="3" fill="#E2DED4"><title>2026-05-03 · 0 contributions</title></rect>
  <rect x="864" y="126" width="10" height="10" rx="3" fill="#E2DED4"><title>2026-05-04 · 0 contributions</title></rect>
  <rect x="864" y="140" width="10" height="10" rx="3" fill="#E2DED4"><title>2026-05-05 · 0 contributions</title></rect>
  <rect x="864" y="154" width="10" height="10" rx="3" fill="#E2DED4"><title>2026-05-06 · 0 contributions</title></rect>
  <rect x="864" y="168" width="10" height="10" rx="3" fill="#E2DED4"><title>2026-05-07 · 0 contributions</title></rect>
  <rect x="864" y="182" width="10" height="10" rx="3" fill="#E2DED4"><title>2026-05-08 · 0 contributions</title></rect>
  <rect x="864" y="196" width="10" height="10" rx="3" fill="#E2DED4"><title>2026-05-09 · 0 contributions</title></rect>
  <rect x="878" y="112" width="10" height="10" rx="3" fill="#E2DED4"><title>2026-05-10 · 0 contributions</title></rect>
  <rect x="878" y="126" width="10" height="10" rx="3" fill="#E2DED4"><title>2026-05-11 · 0 contributions</title></rect>
  <rect x="878" y="140" width="10" height="10" rx="3" fill="#E2DED4"><title>2026-05-12 · 0 contributions</title></rect>
  <rect x="878" y="154" width="10" height="10" rx="3" fill="#E2DED4"><title>2026-05-13 · 0 contributions</title></rect>
  <rect x="878" y="168" width="10" height="10" rx="3" fill="#E2DED4"><title>2026-05-14 · 0 contributions</title></rect>
  <rect x="878" y="182" width="10" height="10" rx="3" fill="#E2DED4"><title>2026-05-15 · 0 contributions</title></rect>
  <rect x="878" y="196" width="10" height="10" rx="3" fill="#E2DED4"><title>2026-05-16 · 0 contributions</title></rect>
  <rect x="892" y="112" width="10" height="10" rx="3" fill="#E2DED4"><title>2026-05-17 · 0 contributions</title></rect>
  <rect x="892" y="126" width="10" height="10" rx="3" fill="#E2DED4"><title>2026-05-18 · 0 contributions</title></rect>
  <rect x="892" y="140" width="10" height="10" rx="3" fill="#E2DED4"><title>2026-05-19 · 0 contributions</title></rect>
  <rect x="892" y="154" width="10" height="10" rx="3" fill="#BFD9D2"><title>2026-05-20 · 4 contributions</title></rect>
  <rect x="892" y="168" width="10" height="10" rx="3" fill="#BFD9D2"><title>2026-05-21 · 1 contributions</title></rect>
  <rect x="892" y="182" width="10" height="10" rx="3" fill="#E2DED4"><title>2026-05-22 · 0 contributions</title></rect>
  <rect x="892" y="196" width="10" height="10" rx="3" fill="#E2DED4"><title>2026-05-23 · 0 contributions</title></rect>
  <rect x="906" y="112" width="10" height="10" rx="3" fill="#E2DED4"><title>2026-05-24 · 0 contributions</title></rect>
  <rect x="906" y="126" width="10" height="10" rx="3" fill="#E2DED4"><title>2026-05-25 · 0 contributions</title></rect>
  <rect x="906" y="140" width="10" height="10" rx="3" fill="#E2DED4"><title>2026-05-26 · 0 contributions</title></rect>
  <rect x="906" y="154" width="10" height="10" rx="3" fill="#E2DED4"><title>2026-05-27 · 0 contributions</title></rect>
  <rect x="906" y="168" width="10" height="10" rx="3" fill="#E2DED4"><title>2026-05-28 · 0 contributions</title></rect>
  <rect x="906" y="182" width="10" height="10" rx="3" fill="#E2DED4"><title>2026-05-29 · 0 contributions</title></rect>
  <rect x="906" y="196" width="10" height="10" rx="3" fill="#E2DED4"><title>2026-05-30 · 0 contributions</title></rect>
  <rect x="920" y="112" width="10" height="10" rx="3" fill="#E2DED4"><title>2026-05-31 · 0 contributions</title></rect>
  <rect x="920" y="126" width="10" height="10" rx="3" fill="#E2DED4"><title>2026-06-01 · 0 contributions</title></rect>
  <rect x="920" y="140" width="10" height="10" rx="3" fill="#E2DED4"><title>2026-06-02 · 0 contributions</title></rect>
  <rect x="920" y="154" width="10" height="10" rx="3" fill="#E2DED4"><title>2026-06-03 · 0 contributions</title></rect>
  <rect x="920" y="168" width="10" height="10" rx="3" fill="#E2DED4"><title>2026-06-04 · 0 contributions</title></rect>
  <rect x="920" y="182" width="10" height="10" rx="3" fill="#BFD9D2"><title>2026-06-05 · 1 contributions</title></rect>
  <rect x="920" y="196" width="10" height="10" rx="3" fill="#E2DED4"><title>2026-06-06 · 0 contributions</title></rect>
  <rect x="934" y="112" width="10" height="10" rx="3" fill="#E2DED4"><title>2026-06-07 · 0 contributions</title></rect>
  <rect x="934" y="126" width="10" height="10" rx="3" fill="#E2DED4"><title>2026-06-08 · 0 contributions</title></rect>
  <rect x="934" y="140" width="10" height="10" rx="3" fill="#E2DED4"><title>2026-06-09 · 0 contributions</title></rect>
  <rect x="934" y="154" width="10" height="10" rx="3" fill="#E2DED4"><title>2026-06-10 · 0 contributions</title></rect>
  <rect x="934" y="168" width="10" height="10" rx="3" fill="#E2DED4"><title>2026-06-11 · 0 contributions</title></rect>
  <rect x="934" y="182" width="10" height="10" rx="3" fill="#E2DED4"><title>2026-06-12 · 0 contributions</title></rect>
  <rect x="934" y="196" width="10" height="10" rx="3" fill="#E2DED4"><title>2026-06-13 · 0 contributions</title></rect>
  <rect x="948" y="112" width="10" height="10" rx="3" fill="#E2DED4"><title>2026-06-14 · 0 contributions</title></rect>
  <rect x="948" y="126" width="10" height="10" rx="3" fill="#BFD9D2"><title>2026-06-15 · 1 contributions</title></rect>
  <rect x="948" y="140" width="10" height="10" rx="3" fill="#E2DED4"><title>2026-06-16 · 0 contributions</title></rect>
  <rect x="948" y="154" width="10" height="10" rx="3" fill="#E2DED4"><title>2026-06-17 · 0 contributions</title></rect>
  <rect x="948" y="168" width="10" height="10" rx="3" fill="#E2DED4"><title>2026-06-18 · 0 contributions</title></rect>
  <rect x="948" y="182" width="10" height="10" rx="3" fill="#E2DED4"><title>2026-06-19 · 0 contributions</title></rect>
  <rect x="948" y="196" width="10" height="10" rx="3" fill="#E2DED4"><title>2026-06-20 · 0 contributions</title></rect>
  <rect x="962" y="112" width="10" height="10" rx="3" fill="#E2DED4"><title>2026-06-21 · 0 contributions</title></rect>
  <rect x="962" y="126" width="10" height="10" rx="3" fill="#E2DED4"><title>2026-06-22 · 0 contributions</title></rect>
  <rect x="962" y="140" width="10" height="10" rx="3" fill="#E2DED4"><title>2026-06-23 · 0 contributions</title></rect>
  <rect x="962" y="154" width="10" height="10" rx="3" fill="#E2DED4"><title>2026-06-24 · 0 contributions</title></rect>
  <rect x="962" y="168" width="10" height="10" rx="3" fill="#E2DED4"><title>2026-06-25 · 0 contributions</title></rect>
  <rect x="962" y="182" width="10" height="10" rx="3" fill="#E2DED4"><title>2026-06-26 · 0 contributions</title></rect>
  <rect x="962" y="196" width="10" height="10" rx="3" fill="#E2DED4"><title>2026-06-27 · 0 contributions</title></rect>
  <rect x="976" y="112" width="10" height="10" rx="3" fill="#E2DED4"><title>2026-06-28 · 0 contributions</title></rect>
  <rect x="976" y="126" width="10" height="10" rx="3" fill="#E2DED4"><title>2026-06-29 · 0 contributions</title></rect>
  <rect x="976" y="140" width="10" height="10" rx="3" fill="#BFD9D2"><title>2026-06-30 · 3 contributions</title></rect>
  <rect x="976" y="154" width="10" height="10" rx="3" fill="#BFD9D2"><title>2026-07-01 · 1 contributions</title></rect>
  <rect x="976" y="168" width="10" height="10" rx="3" fill="#74B4A8"><title>2026-07-02 · 9 contributions</title></rect>
  <rect x="976" y="182" width="10" height="10" rx="3" fill="#E2DED4"><title>2026-07-03 · 0 contributions</title></rect>
  <rect x="976" y="196" width="10" height="10" rx="3" fill="#D97745"><title>2026-07-04 · 21 contributions</title></rect>
  <rect x="990" y="112" width="10" height="10" rx="3" fill="#BFD9D2"><title>2026-07-05 · 2 contributions</title></rect>
  <rect x="990" y="126" width="10" height="10" rx="3" fill="#BFD9D2"><title>2026-07-06 · 3 contributions</title></rect>
  <rect x="990" y="140" width="10" height="10" rx="3" fill="#BFD9D2"><title>2026-07-07 · 1 contributions</title></rect>
  <rect x="990" y="154" width="10" height="10" rx="3" fill="#E2DED4"><title>2026-07-08 · 0 contributions</title></rect>
  <rect x="990" y="168" width="10" height="10" rx="3" fill="#E2DED4"><title>2026-07-09 · 0 contributions</title></rect>
  <rect x="990" y="182" width="10" height="10" rx="3" fill="#E2DED4"><title>2026-07-10 · 0 contributions</title></rect>
  <rect x="990" y="196" width="10" height="10" rx="3" fill="#74B4A8"><title>2026-07-11 · 6 contributions</title></rect>
  <rect x="1004" y="112" width="10" height="10" rx="3" fill="#E2DED4"><title>2026-07-12 · 0 contributions</title></rect>
  <rect x="1004" y="126" width="10" height="10" rx="3" fill="#BFD9D2"><title>2026-07-13 · 2 contributions</title></rect>
  <rect x="1004" y="140" width="10" height="10" rx="3" fill="#E2DED4"><title>2026-07-14 · 0 contributions</title></rect>
  <rect x="1004" y="154" width="10" height="10" rx="3" fill="#E2DED4"><title>2026-07-15 · 0 contributions</title></rect>
  <rect x="1004" y="168" width="10" height="10" rx="3" fill="#E2DED4"><title>2026-07-16 · 0 contributions</title></rect>
  <rect x="1004" y="182" width="10" height="10" rx="3" fill="#BFD9D2"><title>2026-07-17 · 2 contributions</title></rect>
  <rect x="1004" y="196" width="10" height="10" rx="3" fill="#D97745"><title>2026-07-18 · 35 contributions</title></rect>
  <rect x="1018" y="112" width="10" height="10" rx="3" fill="#D97745"><title>2026-07-19 · 19 contributions</title></rect>
  <rect x="1018" y="126" width="10" height="10" rx="3" fill="#D97745"><title>2026-07-20 · 22 contributions</title></rect>
  <rect x="1018" y="140" width="10" height="10" rx="3" fill="#74B4A8"><title>2026-07-21 · 7 contributions</title></rect>
  <rect x="1018" y="154" width="10" height="10" rx="3" fill="#BFD9D2"><title>2026-07-22 · 2 contributions</title></rect>
  <rect x="1018" y="168" width="10" height="10" rx="3" fill="#BFD9D2"><title>2026-07-23 · 2 contributions</title></rect>
  <rect x="1018" y="182" width="10" height="10" rx="3" fill="#BFD9D2"><title>2026-07-24 · 2 contributions</title></rect>
  <rect x="1018" y="196" width="10" height="10" rx="3" fill="#E2DED4"><title>2026-07-25 · 0 contributions</title></rect>
  <rect x="1032" y="112" width="10" height="10" rx="3" fill="#74B4A8"><title>2026-07-26 · 6 contributions</title></rect>
  <rect x="1032" y="126" width="10" height="10" rx="3" fill="#D97745"><title>2026-07-27 · 20 contributions</title></rect>
  <rect x="1032" y="140" width="10" height="10" rx="3" fill="#BFD9D2"><title>2026-07-28 · 1 contributions</title></rect>
  <rect x="1032" y="154" width="10" height="10" rx="3" fill="#74B4A8"><title>2026-07-29 · 7 contributions</title></rect>
  <rect x="1032" y="168" width="10" height="10" rx="3" fill="#E2DED4"><title>2026-07-30 · 0 contributions</title></rect>
  <rect x="1032" y="182" width="10" height="10" rx="3" fill="#BFD9D2"><title>2026-07-31 · 4 contributions</title></rect>
  <rect x="1032" y="196" width="10" height="10" rx="3" fill="#74B4A8"><title>2026-08-01 · 10 contributions</title></rect>
  <rect x="1046" y="112" width="10" height="10" rx="3" fill="#E2DED4"><title>2026-08-02 · 0 contributions</title></rect>
  <rect x="1046" y="126" width="10" height="10" rx="3" fill="#BFD9D2"><title>2026-08-03 · 4 contributions</title></rect>
  <rect x="1046" y="140" width="10" height="10" rx="3" fill="#E2DED4"><title>2026-08-04 · 0 contributions</title></rect>
  <rect x="1046" y="154" width="10" height="10" rx="3" fill="#E2DED4"><title>2026-08-05 · 0 contributions</title></rect>
  <rect x="1046" y="168" width="10" height="10" rx="3" fill="#E2DED4"><title>2026-08-06 · 0 contributions</title></rect>
  <rect x="1046" y="182" width="10" height="10" rx="3" fill="#E2DED4"><title>2026-08-07 · 0 contributions</title></rect>
  <rect x="1046" y="196" width="10" height="10" rx="3" fill="#BFD9D2"><title>2026-08-08 · 3 contributions</title></rect>
  <rect x="1060" y="112" width="10" height="10" rx="3" fill="#BFD9D2"><title>2026-08-09 · 3 contributions</title></rect>
  <rect x="1060" y="126" width="10" height="10" rx="3" fill="#E2DED4"><title>2026-08-10 · 0 contributions</title></rect>
  <rect x="1060" y="140" width="10" height="10" rx="3" fill="#BFD9D2"><title>2026-08-11 · 1 contributions</title></rect>
  <rect x="1060" y="154" width="10" height="10" rx="3" fill="#E2DED4"><title>2026-08-12 · 0 contributions</title></rect>
  <rect x="1060" y="168" width="10" height="10" rx="3" fill="#BFD9D2"><title>2026-08-13 · 4 contributions</title></rect>
  <rect x="1060" y="182" width="10" height="10" rx="3" fill="#74B4A8"><title>2026-08-14 · 6 contributions</title></rect>
  <rect x="1060" y="196" width="10" height="10" rx="3" fill="#BFD9D2"><title>2026-08-15 · 2 contributions</title></rect>
  <rect x="1074" y="112" width="10" height="10" rx="3" fill="#BFD9D2"><title>2026-08-16 · 1 contributions</title></rect>
  <rect x="1074" y="126" width="10" height="10" rx="3" fill="#BFD9D2"><title>2026-08-17 · 2 contributions</title></rect>
  <rect x="1074" y="140" width="10" height="10" rx="3" fill="#E2DED4"><title>2026-08-18 · 0 contributions</title></rect>
  <rect x="1074" y="154" width="10" height="10" rx="3" fill="#E2DED4"><title>2026-08-19 · 0 contributions</title></rect>
  <rect x="1074" y="168" width="10" height="10" rx="3" fill="#E2DED4"><title>2026-08-20 · 0 contributions</title></rect>
  <rect x="1074" y="182" width="10" height="10" rx="3" fill="#E2DED4"><title>2026-08-21 · 0 contributions</title></rect>
  <rect x="1074" y="196" width="10" height="10" rx="3" fill="#E2DED4"><title>2026-08-22 · 0 contributions</title></rect>
  <rect x="1088" y="112" width="10" height="10" rx="3" fill="#E2DED4"><title>2026-08-23 · 0 contributions</title></rect>
  <rect x="1088" y="126" width="10" height="10" rx="3" fill="#BFD9D2"><title>2026-08-24 · 5 contributions</title></rect>
  <rect x="1088" y="140" width="10" height="10" rx="3" fill="#E2DED4"><title>2026-08-25 · 0 contributions</title></rect>
  <rect x="1088" y="154" width="10" height="10" rx="3" fill="#BFD9D2"><title>2026-08-26 · 1 contributions</title></rect>
  <rect x="1088" y="168" width="10" height="10" rx="3" fill="#E2DED4"><title>2026-08-27 · 0 contributions</title></rect>
  <rect x="1088" y="182" width="10" height="10" rx="3" fill="#E2DED4"><title>2026-08-28 · 0 contributions</title></rect>
  <rect x="1088" y="196" width="10" height="10" rx="3" fill="#E2DED4"><title>2026-08-29 · 0 contributions</title></rect>
  <rect x="1102" y="112" width="10" height="10" rx="3" fill="#BFD9D2"><title>2026-08-30 · 4 contributions</title></rect>
  <text x="994" y="225" class="small">QUIET</text>
  <rect x="1037" y="216" width="10" height="10" rx="3" fill="#E2DED4"/><rect x="1054" y="216" width="10" height="10" rx="3" fill="#BFD9D2"/><rect x="1071" y="216" width="10" height="10" rx="3" fill="#74B4A8"/><rect x="1088" y="216" width="10" height="10" rx="3" fill="#2A7F78"/><rect x="1105" y="216" width="10" height="10" rx="3" fill="#D97745"/>
  <text x="1127" y="225" class="small">DEEP</text>

        <g transform="translate(374 264)">
          <rect width="174" height="78" rx="18" fill="#FFFDF8" stroke="#D8D1C4"/>
          <text x="18" y="34" class="metric-value">256</text>
          <text x="18" y="58" class="metric-label">CONTRIBUTIONS</text>
        </g>
        <g transform="translate(564 264)">
          <rect width="174" height="78" rx="18" fill="#FFFDF8" stroke="#D8D1C4"/>
          <text x="18" y="34" class="metric-value">23</text>
          <text x="18" y="58" class="metric-label">PUBLIC REPOS</text>
        </g>
        <g transform="translate(754 264)">
          <rect width="174" height="78" rx="18" fill="#FFFDF8" stroke="#D8D1C4"/>
          <text x="18" y="34" class="metric-value">59</text>
          <text x="18" y="58" class="metric-label">PULL REQUESTS</text>
        </g>
        <g transform="translate(944 264)">
          <rect width="174" height="78" rx="18" fill="#FFFDF8" stroke="#D8D1C4"/>
          <text x="18" y="34" class="metric-value">Python</text>
          <text x="18" y="58" class="metric-label">TOP LANGUAGE</text>
        </g>
</svg>
